<?xml version="1.0"?>
<svg width="40" height="32" xmlns="http://www.w3.org/2000/svg" xmlns:svg="http://www.w3.org/2000/svg" class="gradient">
 <defs>
  <linearGradient id="paint0_linear_1422_656" x1="1" x2="0" y1="0.5" y2="0.5">
   <stop class="ccustom" stop-color="#73E5E2"/>
   <stop class="ccompli1" offset="1" stop-color="#394F87"/>
  </linearGradient>
  <linearGradient id="paint1_linear_1422_656" x1="0" x2="1" y1="0.5" y2="0.5">
   <stop class="ccompli1" stop-color="#FBDC8E"/>
   <stop class="ccompli2" offset="1" stop-color="#FB958E"/>
  </linearGradient>
 </defs>
 <g class="layer">
  <title>Layer 1</title>
  <path d="m38.78,15.51c0,-4.11 -1.63,-8.06 -4.54,-10.97c-2.91,-2.91 -6.86,-4.54 -10.97,-4.54c-4.12,0 -8.06,1.63 -10.97,4.54c-2.91,2.91 -4.54,6.86 -4.54,10.97l4.84,0c1.61,0 2.86,-1.34 3.45,-2.84c0.39,-0.98 0.97,-1.88 1.73,-2.64c1.46,-1.46 3.43,-2.27 5.49,-2.27c2.06,0 4.03,0.81 5.48,2.27c1.46,1.45 2.27,3.43 2.27,5.48l7.76,0z" fill="url(#paint0_linear_1422_656)" id="svg_10"/>
  <path class="ccompli1" d="m29.84,21.45c0.78,-1.88 1.19,-3.9 1.19,-5.94l7.75,0c0,8.57 -6.94,15.52 -15.51,15.52c-1.34,0 -2.65,-0.17 -3.89,-0.5c0.71,-0.18 1.4,-0.41 2.07,-0.69c1.88,-0.78 3.59,-1.92 5.03,-3.36c1.44,-1.44 2.59,-3.15 3.36,-5.03z" fill="#FBCF8E" id="svg_11"/>
  <path d="m0,15.51c0,2.04 0.4,4.06 1.18,5.94c0.78,1.88 1.92,3.59 3.36,5.03c1.44,1.44 3.15,2.58 5.04,3.36c1.88,0.78 3.9,1.19 5.93,1.19c2.04,0 4.06,-0.41 5.94,-1.19c1.88,-0.78 3.59,-1.92 5.03,-3.36c1.44,-1.44 2.58,-3.15 3.36,-5.03c0.78,-1.88 1.19,-3.9 1.19,-5.94l-4.85,0c-1.61,0 -2.86,1.35 -3.45,2.84c-0.02,0.05 -0.03,0.09 -0.05,0.13c-0.39,0.94 -0.96,1.8 -1.68,2.52c-0.72,0.72 -1.58,1.29 -2.52,1.68c-0.94,0.39 -1.95,0.59 -2.97,0.59c-1.02,0 -2.02,-0.2 -2.97,-0.59c-0.94,-0.39 -1.79,-0.96 -2.51,-1.68c-0.72,-0.72 -1.29,-1.58 -1.68,-2.52c-0.39,-0.94 -0.59,-1.95 -0.59,-2.97l-7.76,0z" fill="url(#paint1_linear_1422_656)" id="svg_12"/>
  <path class="ccustom" d="m0,15.51c0,-8.56 6.95,-15.51 15.51,-15.51c1.35,0 2.65,0.17 3.89,0.49c-2.67,0.69 -5.12,2.08 -7.1,4.05c-2.91,2.91 -4.54,6.86 -4.54,10.97l-7.76,0z" fill="#73E5E2" id="svg_13"/>
 </g>
</svg>